<?xml version="1.0" encoding="UTF-8"?>
<svg id="uuid-deadb8a4-ad4b-4f27-b253-e00446832e67" data-name="uuid-93798839-154e-45e1-8079-45cf54233a97" xmlns="http://www.w3.org/2000/svg" viewBox="0 0 4163.6 2801.649">
  <path d="M1298.4,1250.848l-.2-330.5c0-67.7-2.6-155.3,3.2-220.5,15.9-173.5,90.2-336.4,210.8-462.1C1654.3,89.648,1849.4,4.148,2054.5.148c203.9-4,401,73,548.3,214,145.2,138.2,230.2,327.9,236.7,528.2,123.8-33.9,235.9,16.3,293.5,131.2-57.2,81.1-119.3,161.2-172.6,244.7-36.5,57.1-61.2,124.8-98.5,181.8-116.3,187.2-285,309.8-503.7,347.1-55.4,9.4-99.4,10.7-155.2,12.6-15,1.3-58-3.9-74.6-5.4-91.5-8.3-171.5-32.4-257.8-60.3-85.3-27-169.5-57.5-252.3-91.5-106.6-43.6-210.6-91.2-319.9-128.2-187.1-51.9-319.5-43.3-507.8-25.4,172.1-76.2,322.1-99.6,507.8-98.2h0v.1Z" fill="#e5bf73"/>
  <path d="M1462.7,706.048c286.1-179.2,613.4-179.5,896.3-1.1,87.6,55.2,154.8,120.3,255.6,155.2,104.9-16.8,116.8-81.5,225-117.8,123.8-33.9,235.9,16.3,293.5,131.2-57.2,81.1-119.3,161.2-172.6,244.7-36.5,57.1-61.2,124.8-98.5,181.8-116.3,187.2-285,309.8-503.7,347.1-55.4,9.4-99.4,10.7-155.2,12.6-15,1.3-58-3.9-74.6-5.4-91.5-8.3-171.5-32.4-257.8-60.3-85.3-27-169.5-57.5-252.3-91.5-106.6-43.6-210.6-91.2-319.9-128.2-187.1-51.9-319.5-43.3-507.8-25.4,172.1-76.2,322.1-99.6,507.8-98.2,46.6,1.8,93.1,6,139.2,12.6,107.6,15.9,404.5,82.3,497.8,22.5,55.6-35.6,110.8-108.4,125.1-173.4,11.6-52.7-2.4-106.5-31.9-150.7-104.7-157.1-389.7-220.3-566.1-255.8h0l.1.1Z" fill="#fbfbfb"/>
  <path d="M1298.4,1374.448c109.2,37,213.3,84.6,319.9,128.2,82.8,34,167,64.5,252.3,91.5,86.3,27.9,166.3,52,257.8,60.3,16.7,1.5,59.6,6.7,74.6,5.4,234.7,27.7,483.4-47.2,638.2-231.2v696h-1542.7v-750.2h-.1Z" fill="#e5bf73"/>
  <path d="M3405.9,2238.448l3.9-.2c71.5-2.7,179.6-5,235.3,47.3,53.2,49.9,50.2,147-.7,197.5-50.9,50.5-155.2,42.2-221.8,42.1,0,56.2-11,162.3,14.2,214.7,6.1,12.8,27.2,14.8,40.6,16.7,9.7-.3,12.7,0,22.4,1.2,8.8,7.8,7.2,3.3,8.4,12.5-14.8,7.1-218,5.4-242.5,3l-1.5-9.3c7.6-11,45.7-2.8,72.2-25.3,16-44.8,11.1-382.8,4.2-450.3-3.7-36.3-56.3-18.7-74.4-28.3-1.6-11.4-3.4-8.2.6-15.7,33.6-4.5,102.7-4.7,139-5.7h0l.1-.2ZM3422.6,2504.548c51.4.2,105.3,5.8,145.6-29.9,18.2-23,29.4-42.8,31.4-72.7,8.8-133.6-67.8-146.4-176.9-143.4v246h-.1Z" fill="#fbfbfb"/>
  <path d="M3882.5,2233.948c28.3,3.5,35.3,54.8,46.9,79.7,63.3,136.1,113,279.5,178.6,414.3,12,24.8,41.2,17.9,55.6,36.4l-1.1,8.7h0c-24.7,2.9-190.2,4.5-207.9-.5l-1.1-8.7c31.3-28.6,100.9,23.4,40.2-107.1-10.8-23.3-22.8-53.8-33.2-78h-201c-15,35.8-37.8,84.3-43.2,122-7.6,53.8,38.8,42.4,56.9,65l-.9,7.6c-27.1,2.3-146,10.7-158.4-11.6,6.1-7.8,15.4-7,27-12.2,11.8-5.3,30.1-19,35.8-30.2,24.9-48.4,47.3-106,68.4-156.3l137.4-329.2h0v.1ZM3767.3,2561.048h186.6c-12.8-31.5-79.8-205.3-95.1-222.1l-91.5,222.1h0Z" fill="#fbfbfb"/>
  <path d="M855,2234.448c7.5,1.1,14.7.4,17.8,7.5,12.7,29.2,26.1,61.4,38.2,90.4l111.5,266.3c16.5,39.2,32.1,78.2,50.5,116.5,12.1,25.1,59.4,41.8,62.3,57.4-4.9.7-25,3-29.2,2.5-23.5-3-171,4.8-181.3-5.1l1-6.5c51.7-32,93.6,19.6,40.8-105-11-25.9-22.4-53.5-33.4-79.6h-201.3c-14.8,35.1-52,110.3-41,147,8.1,26.8,44.3,28.5,72,40.5l4.1,1.8c-25.6,6.3-170.4,12.4-180.2,2.2,9.6-15,59.2-41.1,67.2-58,19.5-41.5,39.1-91.4,56.8-133.6l144-344.3h.2ZM739.7,2561.048h186.6c-11.4-27.9-83.1-210-95.2-222.1l-91.4,222.1Z" fill="#fbfbfb"/>
  <path d="M2382.3,2234.649c1.9.2,7.4.8,9,1.4,22.8,9.2,178.7,425.4,212.7,484.5,10.4,18.1,21.4,26.6,41.5,32.1,6.7,1.8,11.6,2.7,17.3,6.9,1.4,9.9,2.7,5.8-1.4,13.3-34.9,4.3-164.8,2.6-204.2,1.2l-3.4-6.1,1.9-6.1c42.5-28.2,94.2,24.4,38.1-104.9-10.9-25.1-22.1-52.6-32.8-78h-201.3c-15.2,36.2-53.4,113.5-39.7,149.7,9.3,24.6,45,25.9,71,37.7l3.7,1.7c-34.5,11.1-166.4,9.9-201.3,1.4,30.5-16.7,66.1-19.7,83.4-51.5,28.2-51.9,49.6-108.7,72.4-163.3l133.2-319.9h0l-.1-.1ZM2267,2561.048h187.4c-29.2-70.2-62.8-157.8-94.1-225.5-30.8,74.7-61.5,151.3-93.3,225.5h0Z" fill="#fbfbfb"/>
  <path d="M21.9,2244.348c38.5-4.2,121.3-1.9,163-1.8,102.2,138.6,210.1,276.8,313.6,415.1l.4-239.5c0-35.7,1.2-73.2-.8-108.7-2.4-43.4-73.1-41.2-89.6-59.9l2.4-5.3c43.9-1.9,176.3-6.8,212,5.5-30.5,17.8-91.3,12.6-100.2,55.1-6.8,32.7-4.5,74.3-4.5,108.3l.5,249.1c0,33.2,2.4,110.4-3.8,139.4-13.3-14.4-29.6-36.8-41.8-52.8-113.6-142.6-237.1-313.6-347.1-460.3v280.3c0,42.6-1.2,85.7-.3,128.2,1.2,56.8,79.6,51.5,93.7,68.8l-2.5,6.3c-41.7,2.3-184,7.8-216.9-6.5,27.9-15.1,76.9-10.7,96.7-37.8,14.5-19.9,14.4-411.1,1.7-442.1-13.9-33.9-43.1-15.6-68-27.1-5.5-2.5-6.3-9-8.6-14.3h.1Z" fill="#fbfbfb"/>
  <path d="M2630.6,2244.448c21.2-3.7,220.7-2.4,245.6,0l3.7,6.4-2.5,6.7c-14.3,6.8-30.4,3-45.8,5.2-10.1,1.4-20.9,6.5-26.3,15.6-19,32-11.4,329.5-2.2,377.3,6.4,33.5,19.4,56.5,48.7,75.4,43.3,27.9,104.9,31.1,154.2,18.6,40.6-10.3,75.8-32.6,96.5-69.8,11.2-20.2,16.3-42.1,19-64.9,5.4-46.2,7.2-277.4-4-312.6-13.9-43.6-59.5-33.7-92.5-50.8-1.1-.6-2.2-1.2-3.2-1.8,27.1-7.9,35.2-7.2,62.8-7.2,38.8-.4,124.1-4.7,158,7.2-41.7,23.4-57.7,1.1-94.3,49.6-18.6,95,13,275.1-17.7,372.8-12.2,38.8-47.5,72.3-84.7,89.2-63,28.6-159,29.1-223.1,4.2-113.1-44-104.6-138.1-103.9-236.9l1-159.2c0-178.9-64.6-66.7-89.3-125h0Z" fill="#fbfbfb"/>
  <path d="M1093.7,2242.548h516.3c.4,36,6.9,119-4.2,148.6-27.3-52.3-20.6-132.3-101.6-130.3-37.3.9-76.7,0-114.1.2l-.2,280.3c0,47.1-3.3,152.6,7.3,193.1,27.6,30.9,71.4,11.4,87.1,33.8l-3.4,4.1c-31.7,1.5-252.7,6.1-262.4-3.6l.4-7.6c16.3-12.6,89.1,10.2,93.5-55.7,3-44.1,1.4-88.4,1.4-132.7v-311.6c-128.7.9-176.4-26.7-208.2,107.7-.8,3.6-3.8,2.6-6.4,2.4-13-16.9-6.4-101.8-5.5-128.6h0v-.1Z" fill="#fbfbfb"/>
  <path d="M1646.3,2244.348c28.7-3.3,230.2-3.8,256.5,1.6l3.1,6.3c-18.4,13.3-91.3,2.9-92.1,46.2-2.5,128.4-1.5,257-.7,385.4,1,11.4,1.7,51.6,11.6,57.3,42.9,24.8,122.1,13.8,168.9,9.3,31.4-3,55.3-39.5,68.3-62.8,11.7-20.9,17.2-49.3,31-68.6l9.4-1.4,5.3,3.5-3.7,152.9c-49.6,0-437.2,5.5-451.5-4.7l1.2-7.9c20-15.1,74.1,1.7,78-41.5,6.6-72,3.7-145.5,4.1-217.9.3-67.1,1.3-135.6-2.9-202.5-3.5-44-42-35.3-72.5-39-9.5-1.2-10.5-8.4-14.1-16.2h.1Z" fill="#fbfbfb"/>
</svg>